<svg width="254" height="111" viewBox="0 0 254 111" fill="none" xmlns="http://www.w3.org/2000/svg">
<path d="M53.8659 0C53.8659 0 48.4058 7.10514 47.3908 18.8304C47.3908 18.8304 46.7258 21.9804 47.3908 26.1455C47.3908 26.1455 49.2808 42.0008 53.8659 46.9359C53.8659 46.9359 59.676 43.6809 62.6161 30.5906C62.6161 30.5906 63.5261 25.7255 62.6161 20.7204C61.7061 15.7153 57.576 3.22006 53.8659 0Z" fill="white"/>
<path d="M15.2954 22.0504C15.2954 22.0504 16.9054 29.9256 24.2556 37.5208C24.2556 37.5208 26.0056 39.8308 29.2257 41.8258C29.2257 41.8258 41.0909 49.841 47.146 49.666C47.146 49.666 48.3361 43.8209 41.2309 34.1257C41.2309 34.1257 38.4659 30.6606 34.5458 28.3156C30.6257 25.9705 19.6705 21.4554 15.2954 22.0504Z" fill="#87CEEB"/>
<path d="M0 56.7711C0 56.7711 6.02011 61.1812 15.8553 61.7413C15.8553 61.7413 18.5154 62.2313 21.9454 61.5662C21.9454 61.5662 35.1057 59.6412 39.0958 55.6861C39.0958 55.6861 36.2607 50.926 25.3055 48.756C25.3055 48.756 21.2454 48.091 17.0803 48.966C12.9152 49.911 2.62505 53.6211 0 56.7711Z" fill="white"/>
<path d="M4.86523 83.4766C4.86523 83.4766 11.4804 84.1066 19.2155 80.0816C19.2155 80.0816 21.4556 79.2415 23.8006 77.2115C23.8006 77.2115 32.9708 69.7564 34.2658 64.9613C34.2658 64.9613 29.9257 62.6162 20.5805 65.9413C20.5805 65.9413 17.1855 67.3063 14.3854 69.8264C11.5854 72.3464 5.42525 79.8716 4.86523 83.4766Z" fill="#87CEEB"/>
<path d="M23.7655 104.967C23.7655 104.967 28.6656 101.677 31.7107 94.5369C31.7107 94.5369 32.7607 92.6818 33.2157 89.9868C33.2157 89.9868 35.3158 79.6966 33.4607 75.6715C33.4607 75.6715 29.1556 76.5115 24.6056 84.0717C24.6056 84.0717 23.0305 86.9067 22.5755 90.2318C22.1205 93.5219 22.1205 102.167 23.7655 104.967Z" fill="white"/>
<path d="M37.8357 85.1917C37.8357 85.1917 36.0856 89.9518 37.5557 96.4619C37.5557 96.4619 37.7307 98.282 38.8157 100.382C38.8157 100.382 42.5608 108.607 45.8508 110.462C45.8508 110.462 48.4059 107.697 47.7759 100.172C47.7759 100.172 47.4259 97.4069 46.0958 94.8519C44.7308 92.2968 40.3907 86.2767 37.8357 85.1917Z" fill="#87CEEB"/>
<path d="M71.7516 105.527C71.7516 105.527 70.0365 101.432 65.2414 98.1069C65.2414 98.1069 64.0514 97.0569 62.0914 96.3219C62.0914 96.3219 54.8112 93.2418 51.5562 93.9768C51.5562 93.9768 51.5212 97.2669 56.4213 101.782C56.4213 101.782 58.2763 103.357 60.6563 104.232C63.0364 105.107 69.4765 106.332 71.7516 105.527Z" fill="white"/>
<path d="M71.7516 105.527C71.7516 105.527 70.0365 101.432 65.2414 98.1069C65.2414 98.1069 64.0514 97.0569 62.0914 96.3219C62.0914 96.3219 54.8112 93.2418 51.5562 93.9768C51.5562 93.9768 51.5212 97.2669 56.4213 101.782C56.4213 101.782 58.2763 103.357 60.6563 104.232C63.0364 105.107 69.4765 106.332 71.7516 105.527Z" fill="white"/>
<path d="M77.2817 90.3018C77.2817 90.3018 75.0067 88.8318 71.4366 88.7968C71.4366 88.7968 70.4566 88.6567 69.2316 88.9718C69.2316 88.9718 64.4715 89.9168 63.1064 91.4218C63.1064 91.4218 64.2265 93.1018 68.2516 93.6968C68.2516 93.6968 69.7566 93.8718 71.2266 93.4518C72.6966 93.0668 76.3717 91.4918 77.2817 90.3018Z" fill="#87CEEB"/>
<path d="M74.4113 79.6966H68.1112V68.4613H59.991V79.6966H53.6909V54.006H59.991V64.1913H68.1112V54.006H74.4113V79.6966Z" fill="white"/>
<path d="M88.2365 59.7812C90.1615 59.7812 91.8065 60.1313 93.1715 60.8313C94.5016 61.5313 95.5516 62.5463 96.2166 63.8413C96.9166 65.1364 97.2666 66.6764 97.2666 68.4614V71.0515H84.9464C84.9814 72.7315 85.4014 73.9915 86.2064 74.7615C87.0114 75.5666 88.2364 75.9516 89.8815 75.9516C90.9665 75.9516 92.0165 75.8466 92.9965 75.6366C93.9766 75.4266 95.0266 75.0766 96.1116 74.5515V78.3666C95.0966 78.8216 93.9766 79.1716 92.8215 79.3816C91.6665 79.5916 90.4065 79.6966 89.0415 79.6966C86.6614 79.6966 84.7364 79.3116 83.2664 78.5066C81.7613 77.7016 80.6763 76.5816 79.9763 75.1115C79.2763 73.6415 78.9263 71.8915 78.9263 69.8614C78.9263 67.6914 79.2763 65.8714 79.9763 64.3664C80.6763 62.8613 81.7263 61.7413 83.0913 60.9713C84.4564 60.1663 86.2064 59.7812 88.2365 59.7812ZM88.3765 63.3863C87.3614 63.3863 86.5564 63.7363 85.9614 64.4013C85.3664 65.0664 85.0514 66.1864 84.9814 67.7264H91.5615C91.5615 66.8164 91.4215 66.0464 91.1765 65.3814C90.9315 64.7163 90.5815 64.2263 90.0915 63.8763C89.6365 63.5613 89.0765 63.3863 88.3765 63.3863Z" fill="white"/>
<path d="M110.182 59.7812C112.597 59.7812 114.452 60.3413 115.747 61.4963C117.007 62.6513 117.672 64.3313 117.672 66.6064V79.2416H113.297L112.352 76.6866H112.212C111.722 77.3166 111.162 77.8766 110.602 78.2966C110.042 78.7166 109.377 79.0666 108.642 79.2766C107.907 79.4866 107.067 79.5917 106.087 79.5917C104.687 79.5917 103.567 79.3116 102.727 78.7516C101.852 78.1916 101.257 77.4566 100.872 76.5466C100.487 75.6366 100.277 74.6566 100.277 73.6415C100.277 71.6465 101.012 70.1415 102.447 69.1264C103.882 68.1114 105.947 67.5514 108.607 67.4814L111.722 67.3764V66.6064C111.722 65.5564 111.512 64.7863 111.092 64.2613C110.672 63.7363 109.972 63.4913 108.992 63.4913C108.292 63.4913 107.487 63.5963 106.647 63.8063C105.807 64.0163 104.862 64.3663 103.847 64.8214L102.202 61.4263C103.322 60.9013 104.582 60.5163 105.947 60.2363C107.277 59.9212 108.677 59.7812 110.182 59.7812ZM111.687 70.3515L110.007 70.4215C108.747 70.4565 107.802 70.7365 107.172 71.2265C106.542 71.7165 106.227 72.4515 106.227 73.3965C106.227 74.2365 106.402 74.9016 106.787 75.3216C107.172 75.7416 107.732 75.9516 108.467 75.9516C109.412 75.9516 110.182 75.6016 110.777 74.9016C111.372 74.2015 111.687 73.2915 111.687 72.1015V70.3515Z" fill="white"/>
<path d="M128.312 79.5565H122.817V52.326H128.312V79.5565Z" fill="white"/>
<path d="M142.523 75.6715C142.943 75.6715 143.433 75.6365 143.923 75.5315C144.413 75.4615 144.938 75.3215 145.463 75.1115V78.7866C144.763 79.0666 144.028 79.2766 143.223 79.4516C142.418 79.6266 141.543 79.6616 140.633 79.6616C139.128 79.6616 137.903 79.4516 136.993 78.9966C136.048 78.5416 135.348 77.8766 134.928 76.9665C134.508 76.0565 134.263 74.9365 134.263 73.5365V63.7713H131.708V61.3212L134.753 60.0962L136.223 55.8961H140.458V59.9562H145.148V63.7713H140.458V73.3614C140.458 74.1315 140.633 74.6915 140.948 75.0765C141.228 75.4965 141.753 75.6715 142.523 75.6715Z" fill="white"/>
<path d="M155.088 52.571V58.5912C155.088 59.2912 155.053 59.9912 154.983 60.6562C154.913 61.3212 154.773 61.9862 154.633 62.6512H155.018C155.368 62.0212 155.788 61.5312 156.313 61.0762C156.838 60.6562 157.468 60.3412 158.168 60.0962C158.868 59.8862 159.638 59.7812 160.478 59.7812C161.948 59.7812 163.173 60.0612 164.153 60.5862C165.133 61.1112 165.903 61.9162 166.393 62.9663C166.883 64.0163 167.163 65.2763 167.163 66.7813V79.6616H161.143V68.0763C161.143 66.6763 160.933 65.6263 160.548 64.9613C160.163 64.2963 159.533 63.9463 158.693 63.9463C157.783 63.9463 157.083 64.1563 156.558 64.6113C156.033 65.0663 155.648 65.7313 155.438 66.6763C155.228 67.6213 155.123 68.8114 155.123 70.2464V79.6266H149.068V52.501H155.088V52.571Z" fill="white"/>
<path d="M194.009 60.1312C196.144 60.1312 197.754 60.6912 198.839 61.7762C199.924 62.8962 200.449 64.6463 200.449 67.0963V79.6966H197.544V67.2363C197.544 65.6963 197.194 64.5062 196.529 63.7362C195.864 62.9662 194.849 62.5812 193.519 62.5812C191.629 62.5812 190.299 63.1062 189.424 64.1913C188.584 65.2763 188.164 66.8513 188.164 68.9513V79.6966H185.259V67.2363C185.259 66.1863 185.119 65.3463 184.804 64.6463C184.489 63.9462 184.069 63.4562 183.473 63.1062C182.878 62.7562 182.143 62.5812 181.233 62.5812C179.938 62.5812 178.923 62.8612 178.153 63.3862C177.383 63.9112 176.823 64.6813 176.473 65.7313C176.123 66.7813 175.948 68.0413 175.948 69.5464V79.7316H173.008V60.5162H175.388L175.843 63.2462H176.018C176.403 62.5812 176.893 62.0212 177.488 61.5662C178.083 61.1112 178.748 60.7612 179.483 60.5162C180.218 60.2712 180.988 60.1662 181.828 60.1662C183.298 60.1662 184.524 60.4462 185.539 60.9712C186.519 61.5312 187.254 62.3362 187.709 63.4562H187.884C188.514 62.3362 189.389 61.5312 190.509 60.9712C191.489 60.3762 192.679 60.1312 194.009 60.1312Z" fill="#87CEEB"/>
<path d="M213.154 60.2362C215.534 60.2362 217.284 60.7262 218.439 61.7413C219.594 62.7563 220.154 64.3663 220.154 66.5713V79.3466H217.949L217.354 76.5815H217.214C216.654 77.2815 216.094 77.8416 215.464 78.2966C214.869 78.7516 214.169 79.1016 213.364 79.3466C212.559 79.5916 211.614 79.6966 210.459 79.6966C209.234 79.6966 208.184 79.4866 207.239 79.1016C206.294 78.7166 205.559 78.0866 205.034 77.2815C204.509 76.4765 204.229 75.4265 204.229 74.2015C204.229 72.3115 204.999 70.8764 206.574 69.8964C208.149 68.8814 210.529 68.3564 213.749 68.2514L217.179 68.1114V66.9563C217.179 65.3463 216.794 64.1913 216.059 63.5263C215.324 62.8613 214.274 62.5463 212.944 62.5463C211.894 62.5463 210.914 62.6863 209.969 62.9663C209.024 63.2463 208.149 63.5963 207.274 63.9813L206.364 61.8112C207.274 61.3912 208.289 61.0062 209.444 60.6912C210.634 60.3762 211.859 60.2362 213.154 60.2362ZM217.179 70.2464L214.169 70.3514C211.684 70.4564 209.934 70.8414 208.919 71.5064C207.904 72.1714 207.414 73.1515 207.414 74.3765C207.414 75.4615 207.764 76.2315 208.464 76.7565C209.164 77.2815 210.074 77.5266 211.194 77.5266C212.944 77.5266 214.414 77.0715 215.534 76.1265C216.654 75.2165 217.214 73.8165 217.214 71.9614V70.2464H217.179Z" fill="#87CEEB"/>
<path d="M232.51 77.3165C233 77.3165 233.525 77.2814 234.015 77.2114C234.54 77.1414 234.96 77.0364 235.275 76.9314V79.1715C234.925 79.3115 234.435 79.4515 233.805 79.5565C233.175 79.6615 232.58 79.6965 231.985 79.6965C230.934 79.6965 229.989 79.5215 229.114 79.1715C228.239 78.8215 227.574 78.2265 227.049 77.3864C226.524 76.5464 226.279 75.3564 226.279 73.8864V62.5812H223.444V61.1811L226.279 60.0611L227.469 55.931H229.289V60.3411H235.1V62.6162H229.289V73.8514C229.289 75.0414 229.569 75.9514 230.164 76.5464C230.794 77.0015 231.565 77.3165 232.51 77.3165Z" fill="#87CEEB"/>
<path d="M246.055 59.7812C247.7 59.7812 249.135 60.1312 250.325 60.8662C251.515 61.6012 252.425 62.6162 253.055 63.9113C253.685 65.2063 254 66.7463 254 68.4614V70.2814H240.56C240.595 72.5214 241.155 74.2365 242.275 75.4265C243.36 76.6165 244.935 77.2115 246.93 77.2115C248.155 77.2115 249.24 77.1065 250.185 76.8615C251.13 76.6515 252.11 76.3015 253.125 75.8815V78.4366C252.145 78.8566 251.165 79.1716 250.22 79.3816C249.24 79.5916 248.12 79.6966 246.79 79.6966C244.935 79.6966 243.29 79.3116 241.89 78.5766C240.49 77.8065 239.405 76.7215 238.635 75.2515C237.865 73.7815 237.479 71.9964 237.479 69.8964C237.479 67.8314 237.829 66.0463 238.53 64.5413C239.23 63.0363 240.245 61.8812 241.505 61.0412C242.8 60.2012 244.305 59.7812 246.055 59.7812ZM246.02 62.1612C244.445 62.1612 243.185 62.6863 242.24 63.7013C241.295 64.7163 240.735 66.1513 240.56 67.9714H250.85C250.85 66.8163 250.675 65.8363 250.325 64.9613C249.975 64.0863 249.45 63.4213 248.75 62.9313C248.015 62.4062 247.105 62.1612 246.02 62.1612Z" fill="#87CEEB"/>
</svg>
