<svg width="254" height="111" viewBox="0 0 254 111" fill="none" xmlns="http://www.w3.org/2000/svg">
<path d="M53.866 0C53.866 0 48.4059 7.10514 47.3909 18.8304C47.3909 18.8304 46.7259 21.9804 47.3909 26.1455C47.3909 26.1455 49.2809 42.0008 53.866 46.9359C53.866 46.9359 59.6761 43.6809 62.6162 30.5906C62.6162 30.5906 63.5262 25.7255 62.6162 20.7204C61.7062 15.7153 57.5761 3.22006 53.866 0Z" fill="white"/>
<path d="M15.2953 22.0506C15.2953 22.0506 16.9053 29.9257 24.2555 37.5209C24.2555 37.5209 26.0055 39.8309 29.2256 41.826C29.2256 41.826 41.0908 49.8411 47.1459 49.6661C47.1459 49.6661 48.3359 43.821 41.2308 34.1258C41.2308 34.1258 38.4657 30.6607 34.5457 28.3157C30.6256 25.9706 19.6704 21.4556 15.2953 22.0506Z" fill="#A3D9B1"/>
<path d="M0 56.7713C0 56.7713 6.02011 61.1814 15.8553 61.7414C15.8553 61.7414 18.5154 62.2314 21.9454 61.5664C21.9454 61.5664 35.1057 59.6413 39.0958 55.6862C39.0958 55.6862 36.2607 50.9261 25.3055 48.7561C25.3055 48.7561 21.2454 48.0911 17.0803 48.9661C12.9152 49.9111 2.62505 53.6212 0 56.7713Z" fill="white"/>
<path d="M4.86511 83.4765C4.86511 83.4765 11.4802 84.1065 19.2154 80.0814C19.2154 80.0814 21.4554 79.2414 23.8005 77.2114C23.8005 77.2114 32.9707 69.7562 34.2657 64.9611C34.2657 64.9611 29.9256 62.6161 20.5804 65.9412C20.5804 65.9412 17.1854 67.3062 14.3853 69.8262C11.5852 72.3463 5.42512 79.8714 4.86511 83.4765Z" fill="#A3D9B1"/>
<path d="M23.7655 104.967C23.7655 104.967 28.6656 101.677 31.7107 94.5367C31.7107 94.5367 32.7607 92.6817 33.2157 89.9867C33.2157 89.9867 35.3158 79.6965 33.4607 75.6714C33.4607 75.6714 29.1556 76.5114 24.6056 84.0716C24.6056 84.0716 23.0305 86.9066 22.5755 90.2317C22.1205 93.5217 22.1205 102.167 23.7655 104.967Z" fill="white"/>
<path d="M37.8357 85.1917C37.8357 85.1917 36.0856 89.9517 37.5557 96.4619C37.5557 96.4619 37.7307 98.2819 38.8157 100.382C38.8157 100.382 42.5608 108.607 45.8508 110.462C45.8508 110.462 48.4059 107.697 47.7759 100.172C47.7759 100.172 47.4259 97.4069 46.0958 94.8518C44.7308 92.2968 40.3907 86.2767 37.8357 85.1917Z" fill="#A3D9B1"/>
<path d="M71.7514 105.527C71.7514 105.527 70.0364 101.432 65.2413 98.107C65.2413 98.107 64.0513 97.0569 62.0912 96.3219C62.0912 96.3219 54.8111 93.2419 51.556 93.9769C51.556 93.9769 51.521 97.2669 56.4211 101.782C56.4211 101.782 58.2762 103.357 60.6562 104.232C63.0363 105.107 69.4764 106.332 71.7514 105.527Z" fill="white"/>
<path d="M71.7514 105.527C71.7514 105.527 70.0364 101.432 65.2413 98.107C65.2413 98.107 64.0513 97.0569 62.0912 96.3219C62.0912 96.3219 54.8111 93.2419 51.556 93.9769C51.556 93.9769 51.521 97.2669 56.4211 101.782C56.4211 101.782 58.2762 103.357 60.6562 104.232C63.0363 105.107 69.4764 106.332 71.7514 105.527Z" fill="white"/>
<path d="M77.2815 90.3019C77.2815 90.3019 75.0064 88.8319 71.4364 88.7969C71.4364 88.7969 70.4563 88.6569 69.2313 88.9719C69.2313 88.9719 64.4712 89.9169 63.1062 91.4219C63.1062 91.4219 64.2262 93.102 68.2513 93.697C68.2513 93.697 69.7563 93.872 71.2264 93.452C72.6964 93.067 76.3715 91.4919 77.2815 90.3019Z" fill="#A3D9B1"/>
<path d="M74.4115 79.6964H68.1113V68.4611H59.9912V79.6964H53.691V54.0059H59.9912V64.1911H68.1113V54.0059H74.4115V79.6964Z" fill="white"/>
<path d="M88.2367 59.781C90.1617 59.781 91.8068 60.131 93.1718 60.831C94.5018 61.531 95.5518 62.5461 96.2169 63.8411C96.9169 65.1361 97.2669 66.6761 97.2669 68.4612V71.0512H84.9466C84.9816 72.7313 85.4016 73.9913 86.2067 74.7613C87.0117 75.5663 88.2367 75.9513 89.8817 75.9513C90.9667 75.9513 92.0168 75.8463 92.9968 75.6363C93.9768 75.4263 95.0268 75.0763 96.1119 74.5513V78.3664C95.0968 78.8214 93.9768 79.1714 92.8218 79.3814C91.6668 79.5914 90.4067 79.6964 89.0417 79.6964C86.6617 79.6964 84.7366 79.3114 83.2666 78.5064C81.7616 77.7014 80.6765 76.5813 79.9765 75.1113C79.2765 73.6413 78.9265 71.8912 78.9265 69.8612C78.9265 67.6912 79.2765 65.8711 79.9765 64.3661C80.6765 62.8611 81.7266 61.7411 83.0916 60.971C84.4566 60.166 86.2067 59.781 88.2367 59.781ZM88.3767 63.3861C87.3617 63.3861 86.5567 63.7361 85.9617 64.4011C85.3666 65.0661 85.0516 66.1861 84.9816 67.7262H91.5618C91.5618 66.8161 91.4218 66.0461 91.1768 65.3811C90.9317 64.7161 90.5817 64.2261 90.0917 63.8761C89.6367 63.5611 89.0767 63.3861 88.3767 63.3861Z" fill="white"/>
<path d="M110.182 59.781C112.597 59.781 114.452 60.341 115.747 61.496C117.007 62.6511 117.672 64.3311 117.672 66.6061V79.2414H113.297L112.352 76.6863H112.212C111.722 77.3163 111.162 77.8764 110.602 78.2964C110.042 78.7164 109.377 79.0664 108.642 79.2764C107.907 79.4864 107.067 79.5914 106.087 79.5914C104.687 79.5914 103.567 79.3114 102.727 78.7514C101.852 78.1914 101.257 77.4564 100.872 76.5463C100.487 75.6363 100.277 74.6563 100.277 73.6413C100.277 71.6463 101.012 70.1412 102.447 69.1262C103.882 68.1112 105.947 67.5512 108.607 67.4812L111.722 67.3762V66.6061C111.722 65.5561 111.512 64.7861 111.092 64.2611C110.672 63.7361 109.972 63.4911 108.992 63.4911C108.292 63.4911 107.487 63.5961 106.647 63.8061C105.807 64.0161 104.862 64.3661 103.847 64.8211L102.202 61.426C103.322 60.901 104.582 60.516 105.947 60.236C107.277 59.921 108.677 59.781 110.182 59.781ZM111.687 70.3512L110.007 70.4212C108.747 70.4562 107.802 70.7362 107.172 71.2262C106.542 71.7162 106.227 72.4513 106.227 73.3963C106.227 74.2363 106.402 74.9013 106.787 75.3213C107.172 75.7413 107.732 75.9513 108.467 75.9513C109.412 75.9513 110.182 75.6013 110.777 74.9013C111.372 74.2013 111.687 73.2913 111.687 72.1013V70.3512Z" fill="white"/>
<path d="M128.312 79.5565H122.817V52.3259H128.312V79.5565Z" fill="white"/>
<path d="M142.523 75.6714C142.943 75.6714 143.433 75.6364 143.923 75.5314C144.413 75.4614 144.938 75.3214 145.463 75.1114V78.7864C144.763 79.0664 144.028 79.2765 143.223 79.4515C142.418 79.6265 141.543 79.6614 140.633 79.6614C139.128 79.6614 137.903 79.4515 136.993 78.9965C136.048 78.5414 135.348 77.8764 134.928 76.9664C134.508 76.0564 134.263 74.9364 134.263 73.5363V63.7712H131.708V61.3211L134.753 60.0961L136.223 55.896H140.458V59.9561H145.148V63.7712H140.458V73.3613C140.458 74.1313 140.633 74.6914 140.948 75.0764C141.228 75.4964 141.753 75.6714 142.523 75.6714Z" fill="white"/>
<path d="M155.088 52.571V58.5911C155.088 59.2911 155.053 59.9911 154.983 60.6561C154.913 61.3211 154.773 61.9862 154.633 62.6512H155.018C155.368 62.0212 155.788 61.5312 156.313 61.0761C156.838 60.6561 157.468 60.3411 158.168 60.0961C158.868 59.8861 159.638 59.7811 160.478 59.7811C161.948 59.7811 163.173 60.0611 164.153 60.5861C165.133 61.1111 165.903 61.9162 166.393 62.9662C166.883 64.0162 167.163 65.2762 167.163 66.7813V79.6615H161.143V68.0763C161.143 66.6763 160.933 65.6262 160.548 64.9612C160.163 64.2962 159.533 63.9462 158.693 63.9462C157.783 63.9462 157.083 64.1562 156.558 64.6112C156.033 65.0662 155.648 65.7312 155.438 66.6763C155.228 67.6213 155.123 68.8113 155.123 70.2463V79.6265H149.068V52.501H155.088V52.571Z" fill="white"/>
<path d="M194.009 60.1313C196.144 60.1313 197.754 60.6914 198.839 61.7764C199.924 62.8964 200.449 64.6464 200.449 67.0965V79.6967H197.544V67.2365C197.544 65.6965 197.194 64.5064 196.529 63.7364C195.864 62.9664 194.849 62.5814 193.519 62.5814C191.629 62.5814 190.299 63.1064 189.424 64.1914C188.584 65.2765 188.164 66.8515 188.164 68.9515V79.6967H185.259V67.2365C185.259 66.1865 185.119 65.3465 184.804 64.6464C184.489 63.9464 184.069 63.4564 183.474 63.1064C182.879 62.7564 182.144 62.5814 181.234 62.5814C179.939 62.5814 178.924 62.8614 178.154 63.3864C177.383 63.9114 176.823 64.6814 176.473 65.7315C176.123 66.7815 175.948 68.0415 175.948 69.5465V79.7317H173.008V60.5164H175.388L175.843 63.2464H176.018C176.403 62.5814 176.893 62.0214 177.489 61.5664C178.084 61.1114 178.749 60.7614 179.484 60.5164C180.219 60.2714 180.989 60.1664 181.829 60.1664C183.299 60.1664 184.524 60.4464 185.539 60.9714C186.519 61.5314 187.254 62.3364 187.709 63.4564H187.884C188.514 62.3364 189.389 61.5314 190.509 60.9714C191.489 60.3764 192.679 60.1313 194.009 60.1313Z" fill="#A3D9B1"/>
<path d="M213.154 60.2363C215.534 60.2363 217.284 60.7264 218.439 61.7414C219.594 62.7564 220.154 64.3664 220.154 66.5715V79.3467H217.949L217.354 76.5817H217.214C216.654 77.2817 216.094 77.8417 215.464 78.2967C214.869 78.7517 214.169 79.1017 213.364 79.3467C212.559 79.5917 211.614 79.6967 210.459 79.6967C209.234 79.6967 208.184 79.4867 207.239 79.1017C206.294 78.7167 205.559 78.0867 205.034 77.2817C204.509 76.4767 204.229 75.4266 204.229 74.2016C204.229 72.3116 204.999 70.8765 206.574 69.8965C208.149 68.8815 210.529 68.3565 213.749 68.2515L217.179 68.1115V66.9565C217.179 65.3464 216.794 64.1914 216.059 63.5264C215.324 62.8614 214.274 62.5464 212.944 62.5464C211.894 62.5464 210.914 62.6864 209.969 62.9664C209.024 63.2464 208.149 63.5964 207.274 63.9814L206.364 61.8114C207.274 61.3914 208.289 61.0064 209.444 60.6914C210.634 60.3763 211.859 60.2363 213.154 60.2363ZM217.179 70.2465L214.169 70.3515C211.684 70.4565 209.934 70.8415 208.919 71.5066C207.904 72.1716 207.414 73.1516 207.414 74.3766C207.414 75.4616 207.764 76.2316 208.464 76.7567C209.164 77.2817 210.074 77.5267 211.194 77.5267C212.944 77.5267 214.414 77.0717 215.534 76.1266C216.654 75.2166 217.214 73.8166 217.214 71.9616V70.2465H217.179Z" fill="#A3D9B1"/>
<path d="M232.51 77.3166C233 77.3166 233.525 77.2816 234.015 77.2116C234.54 77.1416 234.96 77.0366 235.275 76.9316V79.1716C234.925 79.3116 234.435 79.4516 233.805 79.5566C233.175 79.6616 232.58 79.6966 231.985 79.6966C230.934 79.6966 229.989 79.5216 229.114 79.1716C228.239 78.8216 227.574 78.2266 227.049 77.3866C226.524 76.5466 226.279 75.3565 226.279 73.8865V62.5813H223.444V61.1813L226.279 60.0612L227.469 55.9312H229.289V60.3413H235.1V62.6163H229.289V73.8515C229.289 75.0415 229.569 75.9516 230.164 76.5466C230.794 77.0016 231.565 77.3166 232.51 77.3166Z" fill="#A3D9B1"/>
<path d="M246.055 59.7812C247.7 59.7812 249.135 60.1313 250.325 60.8663C251.515 61.6013 252.425 62.6163 253.055 63.9113C253.685 65.2064 254 66.7464 254 68.4614V70.2815H240.56C240.595 72.5215 241.155 74.2365 242.275 75.4266C243.36 76.6166 244.935 77.2116 246.93 77.2116C248.155 77.2116 249.24 77.1066 250.185 76.8616C251.13 76.6516 252.11 76.3016 253.125 75.8816V78.4366C252.145 78.8566 251.165 79.1716 250.22 79.3816C249.24 79.5916 248.12 79.6966 246.79 79.6966C244.935 79.6966 243.29 79.3116 241.89 78.5766C240.49 77.8066 239.405 76.7216 238.635 75.2516C237.865 73.7815 237.48 71.9965 237.48 69.8965C237.48 67.8314 237.83 66.0464 238.53 64.5414C239.23 63.0363 240.245 61.8813 241.505 61.0413C242.8 60.2013 244.305 59.7812 246.055 59.7812ZM246.02 62.1613C244.445 62.1613 243.185 62.6863 242.24 63.7013C241.295 64.7164 240.735 66.1514 240.56 67.9714H250.85C250.85 66.8164 250.675 65.8364 250.325 64.9613C249.975 64.0863 249.45 63.4213 248.75 62.9313C248.015 62.4063 247.105 62.1613 246.02 62.1613Z" fill="#A3D9B1"/>
</svg>
